<svg xmlns="http://www.w3.org/2000/svg" viewBox="0 0 96 64" width="96" height="64">
  <rect x="14" y="30" width="68" height="4" fill="#1a1300" stroke="#E8A838" stroke-width="0.8"/>
  <line x1="26" y1="30" x2="26" y2="34" stroke="#E8A838" stroke-width="0.5"/>
  <line x1="38" y1="30" x2="38" y2="34" stroke="#E8A838" stroke-width="0.5"/>
  <line x1="58" y1="30" x2="58" y2="34" stroke="#E8A838" stroke-width="0.5"/>
  <line x1="70" y1="30" x2="70" y2="34" stroke="#E8A838" stroke-width="0.5"/>
  <rect x="2" y="14" width="20" height="12" fill="#0d0a00" stroke="#E8A838" stroke-width="0.7" opacity="0.8"/>
  <rect x="2" y="38" width="20" height="12" fill="#0d0a00" stroke="#E8A838" stroke-width="0.7" opacity="0.8"/>
  <rect x="74" y="14" width="20" height="12" fill="#0d0a00" stroke="#E8A838" stroke-width="0.7" opacity="0.8"/>
  <rect x="74" y="38" width="20" height="12" fill="#0d0a00" stroke="#E8A838" stroke-width="0.7" opacity="0.8"/>
  <line x1="22" y1="20" x2="26" y2="32" stroke="#E8A838" stroke-width="0.7"/>
  <line x1="22" y1="44" x2="26" y2="32" stroke="#E8A838" stroke-width="0.7"/>
  <line x1="74" y1="20" x2="70" y2="32" stroke="#E8A838" stroke-width="0.7"/>
  <line x1="74" y1="44" x2="70" y2="32" stroke="#E8A838" stroke-width="0.7"/>
  <ellipse cx="42" cy="32" rx="5" ry="6" fill="#1a1300" stroke="#E8A838" stroke-width="1"/>
  <ellipse cx="48" cy="32" rx="3" ry="5" fill="#1a1300" stroke="#E8A838" stroke-width="0.8"/>
  <ellipse cx="54" cy="32" rx="4" ry="5.5" fill="#1a1300" stroke="#E8A838" stroke-width="1"/>
  <circle cx="48" cy="32" r="1.5" fill="#E8A838"/>
</svg>
