<svg xmlns="http://www.w3.org/2000/svg" viewBox="-6 -6 108 108" preserveAspectRatio="xMidYMid meet">
  <!-- Explosion glow — overlapping translucent circles -->
  <circle cx="48" cy="48" r="42" fill="#FF4455" opacity="0.18"/>
  <circle cx="48" cy="48" r="32" fill="#FF7A4C" opacity="0.30"/>
  <circle cx="48" cy="48" r="22" fill="#FFE066" opacity="0.40"/>

  <!-- Three large planet-body fragments flying outward -->
  <path d="M 24 16 L 38 20 L 34 32 L 26 30 L 16 24 Z" fill="#CC3344" stroke="#FF8899" stroke-width="0.7" opacity="0.92"/>
  <path d="M 63 19 L 77 25 L 73 37 L 61 33 L 57 25 Z" fill="#CC3344" stroke="#FF8899" stroke-width="0.7" opacity="0.92"/>
  <path d="M 36 64 L 56 62 L 62 74 L 56 84 L 38 82 L 32 72 Z" fill="#CC3344" stroke="#FF8899" stroke-width="0.7" opacity="0.92"/>

  <!-- Small debris chunks -->
  <circle cx="14" cy="18" r="2.2" fill="#FF8899" opacity="0.85"/>
  <circle cx="82" cy="22" r="2.6" fill="#FF6677" opacity="0.85"/>
  <circle cx="86" cy="60" r="1.8" fill="#FF8899" opacity="0.7"/>
  <circle cx="10" cy="70" r="2.3" fill="#FF4455" opacity="0.8"/>
  <circle cx="20" cy="86" r="1.6" fill="#FF8899" opacity="0.7"/>
  <circle cx="78" cy="84" r="2" fill="#FF6677" opacity="0.75"/>

  <!-- Outward motion streaks -->
  <path d="M 48 48 L 14 18" stroke="#FFD060" stroke-width="0.7" opacity="0.45" stroke-linecap="round"/>
  <path d="M 48 48 L 82 22" stroke="#FFD060" stroke-width="0.7" opacity="0.45" stroke-linecap="round"/>
  <path d="M 48 48 L 86 60" stroke="#FFD060" stroke-width="0.5" opacity="0.4" stroke-linecap="round"/>
  <path d="M 48 48 L 10 70" stroke="#FFD060" stroke-width="0.6" opacity="0.45" stroke-linecap="round"/>
  <path d="M 48 48 L 20 86" stroke="#FFD060" stroke-width="0.5" opacity="0.4" stroke-linecap="round"/>
  <path d="M 48 48 L 78 84" stroke="#FFD060" stroke-width="0.6" opacity="0.45" stroke-linecap="round"/>

  <!-- Bright explosion center -->
  <circle cx="48" cy="48" r="9" fill="#FFE066" opacity="0.9"/>
  <circle cx="48" cy="48" r="4" fill="#FFFFFF" opacity="0.95"/>
</svg>
