<svg xmlns="http://www.w3.org/2000/svg" viewBox="-6 -6 108 108" preserveAspectRatio="xMidYMid meet">
  <defs>
    <radialGradient id="explosionCore" cx="50%" cy="50%" r="50%">
      <stop offset="0%" stop-color="#FFE066" stop-opacity="0.95"/>
      <stop offset="35%" stop-color="#FF7A4C" stop-opacity="0.7"/>
      <stop offset="70%" stop-color="#FF4455" stop-opacity="0.35"/>
      <stop offset="100%" stop-color="#FF4455" stop-opacity="0"/>
    </radialGradient>
    <radialGradient id="planetBody" cx="40%" cy="40%" r="60%">
      <stop offset="0%" stop-color="#FF6677"/>
      <stop offset="100%" stop-color="#992233"/>
    </radialGradient>
  </defs>

  <!-- Bright explosion glow behind everything -->
  <circle cx="48" cy="48" r="42" fill="url(#explosionCore)"/>

  <!-- Three large cracked-apart planet fragments flying outward -->
  <!-- Top-left fragment -->
  <path d="M 30 22 L 44 26 L 40 38 L 32 36 L 22 30 Z"
        fill="url(#planetBody)"
        stroke="#FF8899" stroke-width="0.7"
        opacity="0.92"
        transform="translate(-6 -6)"/>

  <!-- Top-right fragment -->
  <path d="M 56 24 L 70 30 L 66 42 L 54 38 L 50 30 Z"
        fill="url(#planetBody)"
        stroke="#FF8899" stroke-width="0.7"
        opacity="0.92"
        transform="translate(7 -5)"/>

  <!-- Bottom fragment, larger -->
  <path d="M 36 56 L 56 54 L 62 66 L 56 76 L 38 74 L 32 64 Z"
        fill="url(#planetBody)"
        stroke="#FF8899" stroke-width="0.7"
        opacity="0.92"
        transform="translate(0 8)"/>

  <!-- Small debris chunks -->
  <circle cx="14" cy="18" r="2.2" fill="#FF8899" opacity="0.85"/>
  <circle cx="82" cy="22" r="2.6" fill="#FF6677" opacity="0.85"/>
  <circle cx="86" cy="60" r="1.8" fill="#FF8899" opacity="0.7"/>
  <circle cx="10" cy="70" r="2.3" fill="#FF4455" opacity="0.8"/>
  <circle cx="20" cy="86" r="1.6" fill="#FF8899" opacity="0.7"/>
  <circle cx="78" cy="84" r="2" fill="#FF6677" opacity="0.75"/>

  <!-- Outward-trailing streaks for motion -->
  <path d="M 48 48 L 14 18" stroke="#FFD060" stroke-width="0.7" opacity="0.45" stroke-linecap="round"/>
  <path d="M 48 48 L 82 22" stroke="#FFD060" stroke-width="0.7" opacity="0.45" stroke-linecap="round"/>
  <path d="M 48 48 L 86 60" stroke="#FFD060" stroke-width="0.5" opacity="0.4" stroke-linecap="round"/>
  <path d="M 48 48 L 10 70" stroke="#FFD060" stroke-width="0.6" opacity="0.45" stroke-linecap="round"/>
  <path d="M 48 48 L 20 86" stroke="#FFD060" stroke-width="0.5" opacity="0.4" stroke-linecap="round"/>
  <path d="M 48 48 L 78 84" stroke="#FFD060" stroke-width="0.6" opacity="0.45" stroke-linecap="round"/>

  <!-- Bright explosion center on top -->
  <circle cx="48" cy="48" r="9" fill="#FFE066" opacity="0.9"/>
  <circle cx="48" cy="48" r="4" fill="#FFFFFF" opacity="0.85"/>
</svg>
