<svg xmlns="http://www.w3.org/2000/svg" viewBox="0 0 120 80" width="120" height="80">
  <defs>
    <linearGradient id="cyl-body-d" x1="0%" y1="0%" x2="0%" y2="100%">
      <stop offset="0%" stop-color="#0d0a00"/>
      <stop offset="50%" stop-color="#1a1300"/>
      <stop offset="100%" stop-color="#0d0a00"/>
    </linearGradient>
    <linearGradient id="cyl-window-d" x1="0%" y1="0%" x2="100%" y2="0%">
      <stop offset="0%" stop-color="rgba(232,168,56,0)"/>
      <stop offset="50%" stop-color="rgba(232,168,56,0.5)"/>
      <stop offset="100%" stop-color="rgba(232,168,56,0)"/>
    </linearGradient>
  </defs>
  <line x1="10" y1="40" x2="110" y2="40" stroke="#E8A838" stroke-width="0.4" opacity="0.3" stroke-dasharray="2 2"/>
  <rect x="20" y="28" width="80" height="24" fill="url(#cyl-body-d)" stroke="#E8A838" stroke-width="1"/>
  <ellipse cx="20" cy="40" rx="5" ry="12" fill="#0d0a00" stroke="#E8A838" stroke-width="1"/>
  <ellipse cx="100" cy="40" rx="5" ry="12" fill="#0d0a00" stroke="#E8A838" stroke-width="1"/>
  <line x1="22" y1="33" x2="98" y2="33" stroke="url(#cyl-window-d)" stroke-width="1.2"/>
  <line x1="22" y1="40" x2="98" y2="40" stroke="url(#cyl-window-d)" stroke-width="1.2"/>
  <line x1="22" y1="47" x2="98" y2="47" stroke="url(#cyl-window-d)" stroke-width="1.2"/>
  <line x1="35" y1="28" x2="35" y2="52" stroke="#E8A838" stroke-width="0.5" opacity="0.5"/>
  <line x1="50" y1="28" x2="50" y2="52" stroke="#E8A838" stroke-width="0.5" opacity="0.5"/>
  <line x1="60" y1="28" x2="60" y2="52" stroke="#E8A838" stroke-width="0.5" opacity="0.6"/>
  <line x1="70" y1="28" x2="70" y2="52" stroke="#E8A838" stroke-width="0.5" opacity="0.5"/>
  <line x1="85" y1="28" x2="85" y2="52" stroke="#E8A838" stroke-width="0.5" opacity="0.5"/>
  <rect x="32" y="14" width="56" height="10" fill="#0d0a00" stroke="#E8A838" stroke-width="0.7" opacity="0.7"/>
  <ellipse cx="32" cy="19" rx="3" ry="5" fill="#0d0a00" stroke="#E8A838" stroke-width="0.7" opacity="0.7"/>
  <ellipse cx="88" cy="19" rx="3" ry="5" fill="#0d0a00" stroke="#E8A838" stroke-width="0.7" opacity="0.7"/>
  <line x1="34" y1="19" x2="86" y2="19" stroke="rgba(232,168,56,0.3)" stroke-width="0.6"/>
  <line x1="40" y1="24" x2="40" y2="28" stroke="#E8A838" stroke-width="0.7"/>
  <line x1="60" y1="24" x2="60" y2="28" stroke="#E8A838" stroke-width="0.8"/>
  <line x1="80" y1="24" x2="80" y2="28" stroke="#E8A838" stroke-width="0.7"/>
  <line x1="15" y1="40" x2="6" y2="40" stroke="#E8A838" stroke-width="0.8"/>
  <circle cx="5" cy="40" r="1.5" fill="#1a1300" stroke="#E8A838" stroke-width="0.6"/>
  <line x1="105" y1="40" x2="114" y2="40" stroke="#E8A838" stroke-width="0.8"/>
  <circle cx="115" cy="40" r="1.5" fill="#1a1300" stroke="#E8A838" stroke-width="0.6"/>
  <circle cx="60" cy="40" r="1.4" fill="#E8A838" opacity="0.7"/>
</svg>
